<?xml version="1.0" encoding="UTF-8"?>
<svg id="Capa_1" xmlns="http://www.w3.org/2000/svg" xmlns:xlink="http://www.w3.org/1999/xlink" version="1.1" viewBox="0 0 800 800">
  <!-- Generator: Adobe Illustrator 29.3.1, SVG Export Plug-In . SVG Version: 2.1.0 Build 151)  -->
  <path d="M626.2,126.4H173.8c-29.7,0-53.8,3.4-53.8,27.5l32.2,602.7c0,24,24.1,43.5,53.8,43.5h377.3c29.7,0,53.8-19.5,53.8-43.5l43-602.7c0-24.1-24-27.5-53.7-27.5ZM543.2,467.8l21.5,50.9c0,2.8-2.3,5.1-5.1,5.1h-48.5c-2.8,0-8.2-2.5-10.4-5.1l-13.2-27.1c-2.4-4.2.2-5.8,4-7.4l43.6-20.2c6.3-3.1,8.1,3.7,8.1,3.7ZM384.5,308.2c5.4-3.1,57.6-13,61.5-15.2,3.8-2.3,5.4.7,5.4.7,7.2,12.7,31.8,55.6,41.5,72.7,3.2,5.5,5.2,9.1,5.2,9.1,0,0,13.2-7.6,21.5-12.3,8.2-4.7,5.6,5.1,5.6,5.1,0,0-18.5,72.5-20.5,80.2-1.5,5.6-7.2,3.5-7.2,3.5l-80-20.5s-9.7-2.4-2.9-6.2c6.8-4,23.3-13.4,23.3-13.4,0,0-2.3-4-5.8-10.2-10.1-17.6-42.7-74.4-50.1-87.5,0,0-3-3,2.4-6.1ZM365,592.8c.2,7-6.8,5.7-6.8,5.7l-55.3-2.2c-2.5-1.2-3.6-4.2-2.4-6.8l20.7-43.9c1.2-2.5,5.7-6.3,9-7.2l30.1-.4c4.8-.5,5.2,2.7,5,6.8l-.3,48.1ZM361.9,497.8c-7.1-3.3-24.3-11.5-24.3-11.5,0,0-2,4.2-5,10.5-8.7,18.4-36.6,77.7-43,91.3,0,0-.8,4.1-6.4,1.5-5.6-2.7-43.7-39.8-47.7-41.6-4-1.8-2.4-4.9-2.4-4.9,6.2-13.2,27.4-57.9,35.7-75.6,2.7-5.7,4.5-9.5,4.5-9.5,0,0-13.8-6.5-22.4-10.6-8.6-4.1,1-7.5,1-7.5,0,0,70-26.3,77.5-29.1,5.4-1.9,7,3.8,7,3.8l29,77.3s3.6,9.3-3.5,6ZM374.4,401.2l-39.2-27.9c-5.9-3.9-.8-8.9-.8-8.9l33.4-44c2.4-1.4,5.6-.5,6.9,1.9l24.1,42.1c1.4,2.4,2,8.3.8,11.6l-16.9,24.9c-2.4,4.1-5.2,2.7-8.4.2ZM549.8,600.2c0,4.4-3.5,4.3-3.5,4.3h-94.1v24.8c0,9.6-7.1,2.3-7.1,2.3,0,0-53.8-52-59.4-57.7-4.1-4.1.5-8,.5-8l57.6-59.2s6.8-7.2,6.8.6v26.8h112.6s4.1-1,4.1,5.1c0,6.2-17.3,56.4-17.3,60.9Z"/>
</svg>